<svg fill="#eee" xmlns="http://www.w3.org/2000/svg" width="50" height="50"><path d="M5.281 2a1 1 0 0 0-.812 1.094L8 42.53a.997.997 0 0 0 .719.844l16 4.594a.985.985 0 0 0 .562 0l16-4.594a.997.997 0 0 0 .719-.844l3.531-39.437a.999.999 0 0 0-1-1.094H5.281Zm1.282 2h36.874l-3.343 37.656L25 45.938 9.906 41.656Zm5.968 6.063a1 1 0 0 0-.812 1.093l1.344 14.781a1 1 0 0 0 .968.938H30l-.438 4.594-4.53.968-4.595-.968-.156-1.625a1 1 0 0 0-1-.938h-4.875a.999.999 0 0 0-1 1.094l.563 6.125a1 1 0 0 0 .687.875l9.938 3.031.125.032a.985.985 0 0 0 .562 0L35.344 37a.995.995 0 0 0 .718-.875l1.313-15.031a.993.993 0 0 0-.246-.758 1.003 1.003 0 0 0-.723-.336H19.375l-.25-3.094h17.719a.996.996 0 0 0 1-.906l.437-4.844a.999.999 0 0 0-1-1.094H12.72a.753.753 0 0 0-.188 0Zm1.281 2h22.376l-.25 2.843H18.03a.999.999 0 0 0-1 1.094l.469 5.094a1 1 0 0 0 .969.906h16.843l-1.187 13.281L25 38.031l-9.125-2.75-.375-4.375h2.875l.125 1.469c.031.441.348.809.781.906l5.563 1.157c.133.027.273.027.406 0l5.469-1.157c.433-.097.75-.465.781-.906l.594-6.438a1.005 1.005 0 0 0-1-1.062H14.937Z"/></svg>