<svg fill="#eee" xmlns="http://www.w3.org/2000/svg" width="64" height="64"><path d="M7.02 4C5.23 4 3.806 5.59 4.02 7.365L9.488 52.61a5.026 5.026 0 0 0 3.62 4.221l17.535 4.979c.883.25 1.819.256 2.707.015l18.441-4.996a5.024 5.024 0 0 0 3.69-4.336l4.548-45.187C60.206 5.548 58.792 4 57.025 4H7.02zm0 2h50.005c.624 0 1.075.5 1.014 1.105l-.144 1.436a1 1 0 0 0-.91-.555A1 1 0 0 0 56 9v2a1 1 0 0 0 1.563.84L53.49 52.29a1 1 0 0 0 0 .002 3.009 3.009 0 0 1-2.22 2.605 1 1 0 0 0-.002 0l-18.442 4.997a3.061 3.061 0 0 1-1.637-.01l-17.535-4.979a3.014 3.014 0 0 1-2.18-2.537L6.589 11.924A1 1 0 0 0 8 11V9a1 1 0 0 0-1.016-1.014 1 1 0 0 0-.818.45l-.158-1.311a1 1 0 0 0 0-.002C5.934 6.513 6.388 6 7.02 6zm4.964 1.986A1 1 0 0 0 11 9v2a1 1 0 1 0 2 0V9a1 1 0 0 0-1.016-1.014zm5 0A1 1 0 0 0 16 9v2a1 1 0 1 0 2 0V9a1 1 0 0 0-1.016-1.014zm5 0A1 1 0 0 0 21 9v2a1 1 0 1 0 2 0V9a1 1 0 0 0-1.016-1.014zm5 0A1 1 0 0 0 26 9v2a1 1 0 1 0 2 0V9a1 1 0 0 0-1.016-1.014zm5 0A1 1 0 0 0 31 9v2a1 1 0 1 0 2 0V9a1 1 0 0 0-1.016-1.014zm5 0A1 1 0 0 0 36 9v2a1 1 0 1 0 2 0V9a1 1 0 0 0-1.016-1.014zm5 0A1 1 0 0 0 41 9v2a1 1 0 1 0 2 0V9a1 1 0 0 0-1.016-1.014zm5 0A1 1 0 0 0 46 9v2a1 1 0 1 0 2 0V9a1 1 0 0 0-1.016-1.014zm5 0A1 1 0 0 0 51 9v2a1 1 0 1 0 2 0V9a1 1 0 0 0-1.016-1.014zM17 16c-1.209 0-2.164 1.115-1.975 2.31l.764 4.846a1 1 0 0 0 .986.844h23.473l-.473 4H25a1 1 0 0 0-1 1v6a1 1 0 0 0 1 1h13.83l-.691 5.86-6.03 1.837-5.27-1.785-.349-2.223a1 1 0 0 0 0-.002A2.01 2.01 0 0 0 24.516 38h-4.05c-1.21 0-2.163 1.116-1.976 2.31a1 1 0 0 0 0 .002l1.014 6.438a1.99 1.99 0 0 0 1.326 1.572l10.553 3.574a1 1 0 0 0 .002 0 1.98 1.98 0 0 0 1.2.018l11.645-3.547a1.99 1.99 0 0 0 1.393-1.67l2.89-24.46.475-4.02c.137-1.163-.8-2.217-1.97-2.217H17zm0 2h30l-.473 4-2.888 24.455-11.625 3.543-10.535-3.568-1.012-6.428V40h4.049l.443 2.82a1 1 0 0 0 .668.791l6.146 2.082a1 1 0 0 0 .612.01l6.96-2.121a1 1 0 0 0 .704-.84l.9-7.625A1 1 0 0 0 39.955 34H26v-4h14.664a1 1 0 0 0 .994-.883l.71-6A1 1 0 0 0 41.372 22H17.631L17 18zm25.006 34.26a1 1 0 0 0-.268.039l-2 .54a1 1 0 1 0 .524 1.93l2-.54a1 1 0 0 0-.256-1.97zm-15.03 1.273a1 1 0 0 0-.25 1.965l5.297 1.504 4.239-1.148a1 1 0 1 0-.524-1.93l-3.7 1.004-4.765-1.354a1 1 0 0 0-.296-.04z"/></svg>