<svg fill="#eee" xmlns="http://www.w3.org/2000/svg" width="64" height="64"><path d="M12.576 6C8.964 6 6 8.964 6 12.576v38.848C6 55.036 8.964 58 12.576 58h38.848C55.036 58 58 55.037 58 51.426v-38.85C58 8.964 55.036 6 51.424 6H12.576zm0 2h38.848A4.584 4.584 0 0 1 56 12.576v38.85A4.583 4.583 0 0 1 51.424 56H12.576A4.584 4.584 0 0 1 8 51.424V12.576A4.584 4.584 0 0 1 12.576 8zM12 12a1 1 0 0 0-1 1v2a1 1 0 0 0 2 0v-2a1 1 0 0 0-1-1zm5 0a1 1 0 0 0-1 1v2a1 1 0 0 0 2 0v-2a1 1 0 0 0-1-1zm5 0a1 1 0 0 0-1 1v2a1 1 0 0 0 2 0v-2a1 1 0 0 0-1-1zm5 0a1 1 0 0 0-1 1v2a1 1 0 0 0 2 0v-2a1 1 0 0 0-1-1zm5 0a1 1 0 0 0-1 1v2a1 1 0 0 0 2 0v-2a1 1 0 0 0-1-1zm5 0a1 1 0 0 0-1 1v2a1 1 0 0 0 2 0v-2a1 1 0 0 0-1-1zm5 0a1 1 0 0 0-1 1v2a1 1 0 0 0 2 0v-2a1 1 0 0 0-1-1zm5 0a1 1 0 0 0-1 1v2a1 1 0 0 0 2 0v-2a1 1 0 0 0-1-1zm5 0a1 1 0 0 0-1 1v2a1 1 0 0 0 2 0v-2a1 1 0 0 0-1-1zM29.332 30.117a1 1 0 0 0-1 1V45.6c0 .983-.195 1.394-.336 1.543-.14.148-.384.25-.996.25-1.138 0-1.864-.636-2.465-1.688a1 1 0 0 0-1.38-.363l-3.669 2.193a1 1 0 0 0-.388 1.29C20.314 51.366 23.225 54 27.273 54c2.171 0 4.129-.577 5.541-1.89C34.227 50.795 35 48.8 35 46.3V31.118a1 1 0 0 0-1-1h-4.668zm16.295 0c-4.273 0-7.293 3.014-7.293 6.807 0 1.98.608 3.588 1.662 4.8 1.054 1.214 2.484 2.033 4.1 2.737l1.072.47c.96.43 1.62.774 1.936 1.053.316.281.39.408.39.948 0 .38-.103.596-.334.79-.231.196-.661.378-1.38.378-.828 0-1.319-.243-1.805-.676-.487-.433-.927-1.095-1.377-1.848a1 1 0 0 0-1.422-.312l-3.38 2.302a1 1 0 0 0-.331 1.27C38.842 51.62 41.546 54 45.88 54c2.217 0 4.229-.585 5.72-1.803 1.493-1.217 2.398-3.087 2.397-5.32 0-2.022-.617-3.66-1.748-4.9-1.13-1.242-2.686-2.096-4.563-2.918h-.001l-1.07-.47-.003-.001c-.895-.397-1.473-.72-1.734-.963-.261-.243-.31-.331-.31-.79 0-.567.23-.884 1.056-.884.474 0 .744.084 1.01.264s.557.506.879 1.097a1 1 0 0 0 1.425.358l3.346-2.197a1 1 0 0 0 .326-1.323c-1.553-2.796-4.015-4.033-6.984-4.033zm-15.295 2H33v14.184c0 2.104-.594 3.458-1.547 4.344-.952.885-2.359 1.355-4.18 1.355-2.76 0-4.677-1.665-5.771-3.34l1.986-1.187c.845 1.043 1.957 1.92 3.512 1.92.869 0 1.792-.183 2.447-.875.656-.693.885-1.68.885-2.918V32.117zm15.295 0c2.13 0 3.451.733 4.603 2.313l-1.662 1.093c-.262-.33-.477-.737-.812-.964-.625-.424-1.37-.608-2.131-.608-1.692 0-3.057 1.32-3.057 2.885 0 .861.351 1.697.95 2.254.598.557 1.342.908 2.289 1.328a1 1 0 0 0 .002.002l1.074.47c1.775.778 3.076 1.542 3.888 2.434.813.892 1.227 1.907 1.227 3.555 0 1.72-.613 2.913-1.66 3.767C49.29 51.501 47.744 52 45.88 52c-3.233 0-5-1.399-6.166-3.32l1.808-1.233c.34.508.632 1.033 1.123 1.471A4.664 4.664 0 0 0 45.78 50.1c1.06 0 1.989-.273 2.67-.848.682-.575 1.045-1.444 1.045-2.32 0-.968-.408-1.862-1.064-2.444-.657-.582-1.46-.943-2.453-1.386a1 1 0 0 0-.006-.002l-1.075-.471a1 1 0 0 0-.001-.002c-1.485-.647-2.635-1.35-3.387-2.215-.752-.865-1.174-1.892-1.174-3.488 0-2.8 1.892-4.807 5.293-4.807z"/></svg>