<svg viewBox="0 0 512 512" xmlns="http://www.w3.org/2000/svg" fill-rule="evenodd" clip-rule="evenodd" stroke-linejoin="round" stroke-miterlimit="2"><path d="M332.378 322.322c-18.956-.573-35.382 13.662-37.5 32.5-.03.103-.044.191-.044.294a1.19 1.19 0 001.177 1.177H368.863a1.18 1.18 0 001.177-1.177c0-.044-.015-.103-.015-.147-1.485-19.235-18.397-33.897-37.647-32.647z" fill="#01a71c" fill-rule="nonzero"/><path d="M488.407 78.206L333.996 251.587a4.7 4.7 0 01-6.912 0l-78.823-81.323a4.73 4.73 0 010-5.882L274.29 131a4.69 4.69 0 013.824-1.956 4.69 4.69 0 013.823 1.956l44.118 48.823a4.738 4.738 0 003.602 1.676 4.738 4.738 0 003.603-1.676L456.201 11.294a3.409 3.409 0 00.588-1.912c0-1.808-1.44-3.308-3.235-3.382H20.614c-2.014 0-3.676 1.662-3.676 3.676v492.646c0 2.014 1.662 3.676 3.676 3.676h470.587c2.015 0 3.676-1.662 3.676-3.676V80.412c.118-.353.177-.721.177-1.103a3.414 3.414 0 00-6.647-1.103zm-338.234 372.94a118.853 118.853 0 01-84.412-29.412 4.568 4.568 0 010-6.03l18.383-25.735a4.558 4.558 0 013.956-2.28c.838 0 1.647.221 2.367.663a90.476 90.476 0 0061.765 24.117c24.117 0 35.882-11.176 35.882-22.941 0-36.47-118.823-11.47-118.823-89.117 0-34.265 29.411-62.794 78.235-62.794 28.014-1 55.455 8.206 77.205 25.882 1.692 1.75 1.692 4.574 0 6.324l-18.088 25.147a4.576 4.576 0 01-3.647 1.838 4.581 4.581 0 01-2.97-1.103 89.437 89.437 0 00-56.47-19.412c-18.824 0-29.412 8.382-29.412 20.735 0 32.794 118.529 10.883 118.529 88.235 0 37.353-26.912 65.882-82.647 65.882h.147zm259.117-71.618v.147c0 2.177-1.795 3.97-3.971 3.97h-108.97a1.336 1.336 0 00-1.191 1.324c0 .044.014.103.014.147 3.633 20.97 22.912 35.868 44.118 34.118a67.903 67.903 0 0037.647-12.353 3.956 3.956 0 012.544-.927c1.353 0 2.603.677 3.338 1.81l13.235 19.264c1.133 1.765.75 4.132-.882 5.441a98.109 98.109 0 01-60.294 18.824 84.849 84.849 0 01-4.323.117c-42.603 0-77.647-35.044-77.647-77.647 0-1.014.014-2.044.059-3.058-.015-.736-.03-1.486-.03-2.221 0-42.838 35.25-78.088 78.088-78.088.456 0 .897 0 1.353.015 45.735 0 76.764 34.264 76.764 84.411l.148 4.706z" fill="#01a71c" fill-rule="nonzero"/></svg>